<svg xmlns="http://www.w3.org/2000/svg" width="92" height="92" fill="none">
  <mask id="b" width="92" height="92" x="0" y="0" maskUnits="userSpaceOnUse" style="mask-type:alpha">
    <rect width="92" height="92" fill="#C4C4C4" rx="8"/>
  </mask>
  <g clip-path="url(#a)" mask="url(#b)">
    <path fill="#EAF4FE" d="M45 84A38.01 38.01 0 1 0 6.96 46 38.03 38.03 0 0 0 45 84Z"/>
    <path fill="#fff" stroke="#261D72" stroke-miterlimit="10" stroke-width=".37" d="M70.74 18.32H20.5a4.84 4.84 0 0 0-4.84 4.84v47.56a4.84 4.84 0 0 0 4.84 4.84h50.24a4.84 4.84 0 0 0 4.84-4.84V23.16a4.84 4.84 0 0 0-4.84-4.84Z"/>
    <path fill="#15C" d="M22.18 23.22a.66.66 0 1 0 0-1.32.66.66 0 0 0 0 1.32Zm2.42 0a.66.66 0 1 0 0-1.32.66.66 0 0 0 0 1.32Zm2.42 0a.66.66 0 1 0 0-1.32.66.66 0 0 0 0 1.32Z"/>
    <path fill="#F8C84F" d="M84.85 20.44a11.31 11.31 0 1 1-22.63-.02 11.31 11.31 0 0 1 22.63.02Z"/>
    <path stroke="#261D72" stroke-miterlimit="10" stroke-width=".37" d="M84.02 20.47a11.31 11.31 0 1 1-22.62 0 11.31 11.31 0 0 1 22.62 0Z"/>
    <path fill="#F8C84F" d="M44.6 73.79H26.48a.38.38 0 0 0-.39.38v.2c0 .2.18.37.39.37H44.6c.2 0 .38-.17.38-.38v-.2a.38.38 0 0 0-.38-.37Z"/>
    <path fill="#fff" d="M77.97 17.83c-1.13-3.27-4.66-1.02-5.14-.66-.28-.22-3.81-2.72-5.33.62-1.31 2.9 5.1 8.35 5.26 8.47 0 0 6.26-5.37 5.21-8.43Z"/>
    <path stroke="#15C" stroke-linecap="round" stroke-miterlimit="10" stroke-width=".37" d="M81.08 34.28v-1.83m0 4.65v-1.84m.77-.46h1.84m-5.22 0h1.83"/>
    <path fill="#15C" d="M13.14 48.44H2v-6.62a4.86 4.86 0 0 1 4.86-4.86h6.28v11.48Z"/>
    <path fill="#fff" fill-rule="evenodd" d="M6.57 41.23a1.03 1.03 0 0 1 1.75-.72 1.04 1.04 0 0 1 .28.9 1.02 1.02 0 0 1-2.03-.18Zm1.09 5.02h-.12a.52.52 0 0 1-.38-.3l-.07-.14-.79-1.44-.15-.28c-.21-.4-.82-1.46-.92-1.75a2.55 2.55 0 0 1 1.1-3.05l.19-.1a2.52 2.52 0 0 1 3.59 2.2c0 .7-.13 1-.44 1.56L8 45.97a.49.49 0 0 1-.35.28Z" clip-rule="evenodd"/>
    <path stroke="#15C" stroke-linecap="round" stroke-miterlimit="10" stroke-width=".37" d="M7.64 60.28v-1.83m0 4.65v-1.84m.77-.45h1.84m-5.22 0h1.83"/>
    <path fill="#EAF4FE" d="M72 77.28h-3.2a.49.49 0 0 0-.5.5v3.2c0 .28.23.5.5.5H72a.5.5 0 0 0 .5-.5v-3.2a.49.49 0 0 0-.5-.5Z"/>
    <path fill="#fff" d="M45.8 36.88a.5.5 0 1 0 0-.99.5.5 0 0 0 0 .99Zm.1 2.33a.5.5 0 1 0 0-.98.5.5 0 0 0 0 .98Z"/>
    <path fill="#15C" fill-rule="evenodd" d="M52.46 18.96s1.59-1.93-.33-3.5c0 0 0-2.38-5.03-3.34s-7.61-.13-6.82 3.85c0 0-2.46-.68-2.25 1.85.13 1.5.44 2.99.94 4.41l3.8 1.73 9.7-5ZM21.85 56.1h4.34l-.5 18.26s21.08 2.87 37.35.99L62.1 53.1l7.93-2.61c.85-.26-3.97-11.2-8.2-14.73-5.6-4.65-16.82-5.65-25.7-3.7A15.89 15.89 0 0 0 24.5 42.75a58.1 58.1 0 0 0-2.65 13.56v-.2Z" clip-rule="evenodd"/>
    <path fill="#1149AB" fill-rule="evenodd" d="M52.12 31.87a41.43 41.43 0 0 0-4.1-.74l-1.4 6.98 2.57 1.73 2.93-7.97Z" clip-rule="evenodd"/>
    <path fill="#1149AB" fill-rule="evenodd" d="M40.74 31.5c-.35.04-1.71.14-2.05.19l5.58 8.95 2.35-2.53-5.88-6.6Z" clip-rule="evenodd"/>
    <path fill="#F8C84F" fill-rule="evenodd" d="m60.74 68.79-27.68-.16a1.28 1.28 0 0 1-1.27-1.29l.13-23.98a1.29 1.29 0 0 1 1.3-1.27l27.66.16a1.29 1.29 0 0 1 1.28 1.28l-.14 23.98a1.29 1.29 0 0 1-1.28 1.28Z" clip-rule="evenodd"/>
    <path fill="#EFB73A" fill-rule="evenodd" d="m42.57 68.69-9.51-.06a1.28 1.28 0 0 1-1.28-1.29l.14-23.98a1.29 1.29 0 0 1 1.29-1.27l9.5.05-.14 26.55Z" clip-rule="evenodd"/>
    <path fill="#fff" fill-rule="evenodd" stroke="#261D72" stroke-miterlimit="10" stroke-width=".37" d="M22.97 56.25s-1.4 9.25-1.43 12.87c-.02 3.62 1.5 5.43 6.75 5.85 5.26.42 30.35-.39 36.36-3.91 0 0 .25-1.89-.9-2.12-1.14-.23-11.35-.37-11.35-.37s2.76-2.44 2.65-3.46c-.11-1.02-5.9 3.08-7.6 3.05-1.7-.03-16.8-2.75-16.8-2.75l.95-9.13-8.63-.03Z" clip-rule="evenodd"/>
    <path stroke="#261D72" stroke-linecap="round" stroke-miterlimit="10" stroke-width=".37" d="m31.64 65.6-4.05-.69"/>
    <path fill="#fff" fill-rule="evenodd" stroke="#261D72" stroke-miterlimit="10" stroke-width=".37" d="m67.78 51.44 1 5.05.63-.19c1.32-.39 5.2-1.21 5.83-1.17.68.05 9.94-.09 12.78-.14a.69.69 0 0 1 .68.86c-.15.6-.67.97-1.34 1.36-1.22.74-9.77 1.45-10.81 2.24-.9.68-6.9 4.33-10.43 5.7a2.89 2.89 0 0 1-2.96-.47 1.65 1.65 0 0 1-.65-1.17c-.03-1.4-.33-10.4-.33-10.4l5.6-1.67Z" clip-rule="evenodd"/>
    <path stroke="#261D72" stroke-linecap="round" stroke-miterlimit="10" stroke-width=".37" d="m64.69 57.87 4.02-1.4"/>
    <path fill="#fff" d="m54.41 42.21-4.35-.02-.04 6.93a.54.54 0 0 0 .84.45l1.33-.9 1.35.92a.54.54 0 0 0 .83-.44l.04-6.94Z"/>
    <path fill="#fff" fill-rule="evenodd" d="M41.9 22.86s-2.05-1.62-2.75-.21c-.7 1.4-.56 2.57.5 2.95 1.06.38 1-.21 1.18.43.17.64.42 1.62.83 2.08.4.45-.5 2.2-.5 2.2l-.56 1.47s5.13 6.16 6.02 6.33c.9.18 2.3-2.13 2.33-3.2.04-1.06-.7-3.68-.7-3.68s3.22.22 4.18-3.4c.95-3.63-.14-10.16-.14-10.16S41.5 16.3 41.9 22.86Z" clip-rule="evenodd"/>
    <path fill="#15C" fill-rule="evenodd" d="m39.06 22.77-.37-1.89s6.68-3.89 12.35-3.61c-6.9.83-9.42 1.1-8.73 6.48a.17.17 0 0 1-.33.1c-.45-.94-1.11-1.98-1.8-1.85-.22.08-.88.45-1.12.77Z" clip-rule="evenodd"/>
    <path fill="#D7EAFD" fill-rule="evenodd" d="M44.19 29.5s1.92 3.95 4.51 3.62l-.46-1.89a6.69 6.69 0 0 1-4.04-1.73h-.01Z" clip-rule="evenodd"/>
    <path stroke="#261D72" stroke-linecap="round" stroke-miterlimit="10" stroke-width=".4" d="M52.3 17.9s2.11 8.84-1.05 12.04c-3.16 3.21-7.23-.59-7.23-.59"/>
    <path stroke="#15C" stroke-linejoin="round" stroke-width=".4" d="m41.12 20.75.2 1.92s-.91-1.16-1.97-.26c-1.05.9-.6 3.86 1.39 3.24 0 0 .44 2.43 1.27 2.75l-1.58 3.52"/>
    <path stroke="#15C" stroke-miterlimit="10" stroke-width=".4" d="m48.13 31.23 1.06 3.5"/>
    <path fill="#15C" fill-rule="evenodd" d="M41.98 11.23a.8.8 0 1 1 .09-1.59.8.8 0 0 1-.09 1.59Z" clip-rule="evenodd"/>
    <path fill="#F8C84F" fill-rule="evenodd" stroke="#261D72" stroke-miterlimit="10" stroke-width=".37" d="M53.49 15.12c6.27-1.7 5.9-3.32-1.81-1.14-2-7.44-17.72-4.58-13.4 6a.34.34 0 0 0 .48.18c4.32-2.38 9.43-3.61 14.73-5.03v-.01Z" clip-rule="evenodd"/>
    <path stroke="#261D72" stroke-linecap="round" stroke-miterlimit="10" stroke-width=".19" d="M39.8 23.5s.75-.05.98.91"/>
    <path stroke="#261D72" stroke-linecap="round" stroke-miterlimit="10" stroke-width=".37" d="M44.59 21.48s.52-1.35 2.65-.65"/>
    <path fill="#fff" fill-rule="evenodd" d="M47.24 41.5a.63.63 0 0 1-.46-1.09.63.63 0 0 1 .46-.17.63.63 0 1 1 0 1.25Z" clip-rule="evenodd"/>
    <path stroke="#261D72" stroke-linecap="round" stroke-linejoin="round" stroke-width=".4" d="m41.12 20.75.2 1.92s-.91-1.16-1.97-.26c-1.05.9-.6 3.86 1.39 3.24 0 0 .44 2.43 1.27 2.75l-1.58 3.52"/>
    <path stroke="#261D72" stroke-linecap="round" stroke-miterlimit="10" stroke-width=".4" d="m48.13 31.23 1.06 3.5s-.9 3.59-2.57 3.38c-1.67-.2-6.15-6.25-6.15-6.25"/>
    <path stroke="#261D72" stroke-linecap="round" stroke-miterlimit="10" stroke-width=".37" d="M49.45 20.51s1.3-.72 2.44.23m-2.66 3.03c.82 1.27.78 2.2-.55 1.74m-2.63 1.22s.69 1.6 2.8 1.15"/>
    <path fill="#261D72" fill-rule="evenodd" d="M50.63 22.76c-.23 0-.42-.26-.42-.59 0-.32.2-.58.42-.58.24 0 .43.26.42.59 0 .32-.2.58-.42.58Zm-3.99.32c-.24 0-.43-.27-.42-.6 0-.34.18-.6.42-.6s.42.27.41.6c0 .33-.18.6-.41.6Z" clip-rule="evenodd"/>
    <path fill="#15C" fill-rule="evenodd" d="M52.22 17.23s-1.05 1.64-4.6 1.54c-2-.06-3.08.43-3.65.87a.14.14 0 0 1-.2-.18c.35-.52.8-.97 1.33-1.32 1.59-1.11 7.12-.9 7.12-.9v-.01Z" clip-rule="evenodd"/>
    <path fill="#15C" fill-rule="evenodd" d="M53 17.88s.03 1.57-2.72 1.17a.16.16 0 0 1-.04-.29c.46-.2 1.04-.57 1.06-1.17.05-1 1.7.29 1.7.29Z" clip-rule="evenodd"/>
    <path stroke="#261D72" stroke-linecap="round" stroke-miterlimit="10" stroke-width=".19" d="M40.41 23.74a.56.56 0 0 0-.4.5"/>
    <path fill="#F8C84F" fill-rule="evenodd" d="m89.2 55.22-15.32-.09a.71.71 0 0 1-.71-.71l.07-13.3a.71.71 0 0 1 .72-.7l15.33.09a.71.71 0 0 1 .71.71l-.07 13.29a.71.71 0 0 1-.72.7Z" clip-rule="evenodd"/>
    <path fill="#EFB73A" fill-rule="evenodd" d="m79.14 55.16-5.26-.03a.71.71 0 0 1-.71-.71l.07-13.3a.71.71 0 0 1 .72-.7l5.27.03-.09 14.71Z" clip-rule="evenodd"/>
    <path fill="#fff" d="m85.72 40.49-2.42-.01-.02 2.89a.28.28 0 0 0 .41.25l.79-.4.8.41a.28.28 0 0 0 .4-.24l.04-2.9Z"/>
    <path fill="#fff" stroke="#261D72" stroke-miterlimit="10" stroke-width=".37" d="M50.97 70.99H10.54c-.68 0-1.23.55-1.23 1.23v6.16c0 .68.55 1.23 1.23 1.23h40.43c.69 0 1.24-.55 1.24-1.23v-6.16c0-.68-.55-1.23-1.24-1.23Z"/>
    <path fill="#F8C84F" d="M41.64 76.09H26.48a.38.38 0 0 0-.39.38v.2c0 .2.18.38.39.38h15.16a.4.4 0 0 0 .39-.39v-.19a.38.38 0 0 0-.39-.38Z"/>
    <path fill="#15C" d="M22.34 73.32h-6.7a.5.5 0 0 0-.5.5v2.97c0 .27.22.5.5.5h6.7a.5.5 0 0 0 .5-.5v-2.97a.5.5 0 0 0-.5-.5Z"/>
    <path fill="#F8C84F" d="M47.07 74.18H26.5a.38.38 0 0 0-.38.38v.2c0 .2.17.38.38.38h20.57a.4.4 0 0 0 .38-.39v-.19a.38.38 0 0 0-.38-.38Z"/>
  </g>
  <defs>
    <clipPath id="a">
      <path fill="#fff" d="M0 0h88v76H0z" transform="translate(2 8)"/>
    </clipPath>
  </defs>
</svg>
