<svg width="332" height="263" xmlns="http://www.w3.org/2000/svg"><g fill="none" fill-rule="evenodd"><path d="M331.75 109.09c-23.7 0-23.7-12.495-47.398-12.495-23.695 0-23.695 12.495-47.389 12.495-23.697 0-23.697-12.495-47.394-12.495s-23.697 12.495-47.395 12.495h.005c-23.698 0-23.698-12.495-47.397-12.495-23.694 0-23.694 12.495-47.389 12.495-23.696 0-23.696-12.495-47.393-12.495m331.75-9.884c-23.7 0-23.7-12.495-47.398-12.495-23.695 0-23.695 12.495-47.389 12.495-23.697 0-23.697-12.495-47.394-12.495S165.872 86.71 142.174 86.71h.005c-23.698 0-23.698-12.495-47.397-12.495-23.694 0-23.694 12.495-47.389 12.495C23.697 86.71 23.697 74.216 0 74.216m331.75-9.885c-23.7 0-23.7-12.495-47.398-12.495-23.695 0-23.695 12.495-47.389 12.495-23.697 0-23.697-12.495-47.394-12.495S165.872 64.33 142.174 64.33h.005c-23.698 0-23.698-12.495-47.397-12.495-23.694 0-23.694 12.495-47.389 12.495C23.697 64.33 23.697 51.836 0 51.836m0-22.38c23.697 0 23.697 12.496 47.393 12.496 23.695 0 23.695-12.495 47.39-12.495 23.698 0 23.698 12.495 47.396 12.495h-.005c23.698 0 23.698-12.495 47.395-12.495 23.697 0 23.697 12.495 47.394 12.495 23.694 0 23.694-12.495 47.39-12.495 23.697 0 23.697 12.495 47.396 12.495" stroke="#B0BDC6"/><path fill="#B0BDC6" d="M260.656 207.318l-95.084-54.897h-70L.489 207.318l95.085 54.897h70z"/><path fill="#BA8C43" d="M304.462 55.501L209.378.604l-43.806 46.66 95.084 54.896z"/><path fill="#A87B39" d="M260.656 207.318l-95.084-54.897V47.264l95.084 54.896z"/><path fill="#BA8C43" d="M260.656 207.318l-95.084-54.897-95.084 54.897 95.084 54.897z"/><path fill="#CC9E4C" d="M165.573 262.215l95.084-54.897V102.161l-95.084 54.896zM70.489 207.318l95.084-54.897V47.264L70.489 102.16z"/><path fill="#F2F4F6" d="M175.935 207.312l28.101-16.224v35.103l-28.1 16.224z"/><path fill="#A87B39" d="M165.573 262.215l-95.084-54.897V102.161l95.084 54.896z"/><path fill="#E5AB4E" d="M26.683 55.501L121.767.604l43.806 46.66-95.084 54.896z"/><path fill="#A87B39" d="M165.573 157.058v84.157l95.084-54.897V102.16z"/><path fill="#D8DFE5" d="M204.036 219.008v-27.92l-28.101 16.224v27.92z"/><path fill="#E5AB4E" d="M165.573 157.058l95.084-54.897 47.296 32.92-95.083 54.895z"/><path fill="#BA8C43" d="M165.573 157.058L70.489 102.16l-47.296 32.92 95.084 54.895z"/></g></svg>